<?xml version="1.0" standalone="no"?>
<svg viewBox="0 0 200 200" xmlns="http://www.w3.org/2000/svg">
  <path fill="#FF0066" d="M45.1,-77.6C59.3,-70,72.3,-59.6,77.6,-46.2C82.8,-32.8,80.4,-16.4,78.1,-1.3C75.8,13.7,73.6,27.5,68.7,41.6C63.9,55.8,56.5,70.3,44.6,77.8C32.7,85.4,16.3,85.8,1.8,82.7C-12.7,79.6,-25.4,72.8,-36.6,64.9C-47.8,56.9,-57.4,47.8,-64.7,36.8C-72,25.8,-77,12.9,-77.4,-0.2C-77.7,-13.3,-73.3,-26.5,-67.2,-39.7C-61.1,-52.8,-53.4,-65.9,-41.9,-75.1C-30.4,-84.3,-15.2,-89.6,0.1,-89.9C15.5,-90.1,30.9,-85.2,45.1,-77.6Z" transform="translate(100 100)" />
</svg>
