<?xml version="1.0" standalone="no"?>
<svg viewBox="0 0 200 200" xmlns="http://www.w3.org/2000/svg">
  <path fill="#D0E2FF" d="M38.1,-56.7C50.6,-58.8,62.7,-51,70.7,-39.9C78.7,-28.8,82.6,-14.4,75.9,-3.8C69.3,6.7,52.1,13.4,44.9,25.9C37.7,38.4,40.5,56.6,34.6,62.6C28.8,68.5,14.4,62,1.7,59.1C-11,56.2,-22.1,56.7,-34.8,54.8C-47.6,52.9,-62,48.5,-70,39C-77.9,29.4,-79.4,14.7,-73.9,3.2C-68.5,-8.4,-56.1,-16.8,-48.9,-27.7C-41.8,-38.7,-39.8,-52.1,-32.5,-52.9C-25.2,-53.8,-12.6,-42.1,0.1,-42.3C12.8,-42.5,25.6,-54.5,38.1,-56.7Z" transform="translate(100 100)" />
</svg>
